# xmcd
#
# Track frame offsets: 
#        150
#        16943
#        35297
#        53400
#        71374
#        88172
#        105266
#        119640
#        140322
#        158109
#        177568
#        197288
#        222515
#
# Disc length: 3263 seconds
#
# Revision: 2
# Processed by: cddbd v1.5.2PL0 Copyright (c) Steve Scherf et al.
# Submitted via: ExactAudioCopyFreeDBPlugin 1.0
#
DISCID=a80cbd0d
DTITLE=Tinariwen - Amadjar
DYEAR=2019
DGENRE=World
TTITLE0=Tenere Maloulat (feat. Warren Ellis)
TTITLE1=Zawal (feat. Warren Ellis, Noura Mint Seymali, Jeiche Ould Chi
TTITLE1=ghaly)
TTITLE2=Amalouna (feat. Noura Mint Seymali, Stephen O'Malley)
TTITLE3=Taqkal Tarha (feat. Micah Nelson)
TTITLE4=Anina
TTITLE5=Madjam Mahilkamen
TTITLE6=Takount (feat. Noura Mint Seymali)
TTITLE7=Iklam Dglour (feat. Warren Ellis, Rodolphe Burger)
TTITLE8=Kel Tinawen (feat. Cass McCombs)
TTITLE9=Itous Ohar (feat. Cass McCombs)
TTITLE10=Mhadjar Yassouf Idjan (feat. Warren Ellis)
TTITLE11=Wartilla (feat. Warren Ellis, Stephen O'Malley)
TTITLE12=Lalla
EXTD=
EXTT0=
EXTT1=
EXTT2=
EXTT3=
EXTT4=
EXTT5=
EXTT6=
EXTT7=
EXTT8=
EXTT9=
EXTT10=
EXTT11=
EXTT12=
PLAYORDER=
